<svg xmlns="http://www.w3.org/2000/svg" width="72" height="87"><path d="M26.342 21.299c5.457 0 9.88 4.423 9.88 9.88 0 5.456-4.423 9.88-9.88 9.88-.158 0-.315-.004-.472-.012-3.343.005-7.665-.005-10.806.005-.997-.022-1.899.94-1.876 2.007-.002 2.704-.724 3.645-.724 4.42 0 .937.722 1.63.724 4.9-.03.693.47 1.363 1.12 1.447 1.329.157 3.639.241 4.933.63 1.75.553 3.983 1.83 5.222 3.428 6.66 8.946 4.202 17.098 6.473 11.265.602-1.547 2.057-5.33 2.948-5.393.514-.063.102 1.212.325 2.772.189 1.701 6.804-.378 10.395-5.292 3.591-4.914 5.263-17.902 6.222-18.212.96-.31 1.134 2.704.878 5.684-.284 3.296-.81 6.742.014 6.8.824.058 3.743-4.058 7.173-7.758 3.2-3.452 6.823-6.267 7.986-5.84 1.163.426-10.318 13.365-9.586 14.267.732.901 13.167-2.889 13.376-1.56.208 1.327-4.503 3.466-9.084 4.778-3.842 1.1-7.742 1.613-7.636 2.578.107.964 7.667 2.476 7.146 3.505-.521 1.03-9.82-.49-16.508 2.514-6.69 3.003-10.77 7.089-12.038 8.248-5.427 4.824-6.4 6.766-10.699 9.023-2.775 1.51-5.998 1.977-9.066 1.494-3.385-.515-6.667-1.726-9.693-3.42a2.088 2.088 0 01-1.124-2.04c.06-.86.72-1.452 1.143-2.126.363-.587.927-1.081 1.611-1.103.73-.08 1.316.45 1.93.778 2.51 1.422 5.247 2.581 8.122 2.648 1.866.07 3.761-.494 5.285-1.662 1.752-1.324 2.941-3.41 3.376-5.645.291-1.462.241-2.973.126-4.454-.217-2.426-.87-4.882-2.273-6.837-1.043-1.471-2.561-2.56-4.25-2.961-2.012-.554-4.12-.435-6.162-.163-1.457.18-2.868.628-4.251 1.136-3.241 1.231-4.344 1.604-5.038-.062-.12-.286-.572-1.664-.637-2.217-.14-1.121.327-1.668 1.018-2.036 1.348-.719 4.64-1.691 4.64-3.737 0-1.085-.551-1.808-1.646-1.862-1.795-.031-1.345-.04-3.14-.014-.627.01-1.813-.366-1.797-1.985v-.465c-.005-1.794-.03-1.856.011-2.355-.007-1.196.898-1.8 1.786-1.814.903-.012 1.805-.002 2.708 0H4.7c.757-.007 1.905-.122 1.905-1.654.004-1.642-1.326-1.672-1.988-1.67-.972.002-1.943.008-2.914-.007-.95-.01-1.67-.549-1.685-1.964-.013-1.312-.028-1.235-.01-2.5.018-1.173 1.076-1.806 1.957-1.81 1.594-.02 3.189.012 4.783 0 .936.021 2.299-.026 3.28 0 1.634-.002 3.268-.015 4.902 0 1.644-.051 1.817-.264 1.763-1.448a9.832 9.832 0 01-.231-2.13c0-5.456 4.423-9.879 9.88-9.879zM69.338 0c.773.046 1.49.557 1.778 1.293.298.78.689 1.535.844 2.363v.304a2.143 2.143 0 01-1.278 1.787c-3.328 1.541-6.663 3.071-9.988 4.62-.73.325-1.21 1.159-1.085 1.97.057.564.438 1.004.818 1.383 2.386 2.447 4.439 5.272 5.779 8.456 1.036 2.472 1.688 5.189 1.387 7.89a10.538 10.538 0 01-2.72 6.035c-2.104 2.269-5.201 3.446-8.24 3.367l-7.343-.009-3.64-.004c-.742 0-1.45.306-1.956.847-.852.91-2.356 2.28-4.512 4.112-4.484 3.809-9.981 5.412-15.697 6.133-.751.088-1.507-.325-1.897-.976-.335-.528-.31-1.183-.376-1.782-.035-.553-.15-1.12-.014-1.666.207-.798.917-1.425 1.723-1.516 2.057-.277 4.102-.687 6.087-1.31 2.875-.885 5.498-1.88 7.585-4.159a7.987 7.987 0 001.993-3.99c.463-2.499.372-5.054.432-7.582.028-.988.855-1.868 1.82-1.942.722-.046 1.45-.064 2.175-.057.973.011 1.859.858 1.93 1.85.069 1.29-.036 2.594.151 3.876.103.657.362 1.4 1.01 1.676.92.353 1.918.256 2.881.271 4.661-.038 4.655.208 9.297-.337 1.616-.22 3.162-1.362 3.634-2.996.445-1.621.163-3.368-.465-4.898-.96-2.322-2.476-4.345-4.071-6.246-1.436-1.715-3.028-3.278-4.578-4.88-.628-.63-.585-1.578-.455-2.393.128-.978.177-1.968.335-2.94.141-.802.811-1.345 1.52-1.62C58.553 4.87 62.898 2.796 67.25.732c.586-.27 1.152-.608 1.793-.733h.295zM25.224 26.864a4.469 4.469 0 00-2.142 1.266c-1.49 1.521-1.613 4.126-.273 5.78 1.286 1.731 3.891 2.248 5.742 1.136 1.86-1.02 2.743-3.455 1.959-5.428-.732-2.08-3.153-3.351-5.286-2.754zm.135-19.575c2.24-.627 4.782.707 5.55 2.892.823 2.072-.103 4.628-2.057 5.699-1.944 1.167-4.679.625-6.03-1.193-1.406-1.737-1.277-4.471.288-6.069a4.703 4.703 0 012.249-1.33z" fill="#29CC88" fill-rule="evenodd"/></svg>